<mxfile host="app.diagrams.net" modified="2022-03-24T08:32:16.370Z" agent="5.0 (Macintosh; Intel Mac OS X 10_15_7) AppleWebKit/605.1.15 (KHTML, like Gecko) Version/15.4 Safari/605.1.15" etag="s3JhBrvjqcDm_fsLVQiV" version="17.2.1" type="github">
  <diagram id="mJyL_BlL9cWq7qoCwr34" name="Page-1">
    <mxGraphModel dx="880" dy="560" grid="1" gridSize="10" guides="1" tooltips="1" connect="1" arrows="1" fold="1" page="1" pageScale="1" pageWidth="827" pageHeight="1169" background="none" math="0" shadow="0">
      <root>
        <mxCell id="0" />
        <mxCell id="1" parent="0" />
        <mxCell id="4MG40RaIR5A7FEPSrc4y-7" value="Build" style="rounded=1;whiteSpace=wrap;html=1;sketch=0;fontSize=18;fontColor=#FFFFFF;strokeColor=#D77535;strokeWidth=3;fillColor=#D56C2D;" parent="1" vertex="1">
          <mxGeometry x="80" y="153" width="120" height="60" as="geometry" />
        </mxCell>
        <mxCell id="4MG40RaIR5A7FEPSrc4y-8" value="Deploy" style="rounded=1;whiteSpace=wrap;html=1;sketch=0;fontSize=18;fontColor=#FFFFFF;strokeColor=#D77535;strokeWidth=3;fillColor=#D56C2D;" parent="1" vertex="1">
          <mxGeometry x="319" y="153" width="120" height="60" as="geometry" />
        </mxCell>
        <mxCell id="4MG40RaIR5A7FEPSrc4y-9" value="Run" style="rounded=1;whiteSpace=wrap;html=1;sketch=0;fontSize=18;fontColor=#FFFFFF;strokeColor=#D77535;strokeWidth=3;fillColor=#D56C2D;" parent="1" vertex="1">
          <mxGeometry x="560" y="153" width="120" height="60" as="geometry" />
        </mxCell>
        <mxCell id="4MG40RaIR5A7FEPSrc4y-10" value="Import" style="rounded=1;whiteSpace=wrap;html=1;sketch=0;fontSize=18;fontColor=#FFFFFF;strokeColor=#D77535;strokeWidth=3;fillColor=#D56C2D;" parent="1" vertex="1">
          <mxGeometry x="80" y="320" width="120" height="60" as="geometry" />
        </mxCell>
        <mxCell id="4MG40RaIR5A7FEPSrc4y-12" value="Use" style="rounded=1;whiteSpace=wrap;html=1;sketch=0;fontSize=18;fontColor=#FFFFFF;strokeColor=#D77535;strokeWidth=3;fillColor=#D56C2D;" parent="1" vertex="1">
          <mxGeometry x="560" y="320" width="120" height="60" as="geometry" />
        </mxCell>
        <mxCell id="4MG40RaIR5A7FEPSrc4y-13" value="Actor" style="shape=umlActor;verticalLabelPosition=bottom;verticalAlign=top;html=1;outlineConnect=0;sketch=0;fontSize=18;fontColor=#FFFFFF;strokeColor=#D77535;strokeWidth=2;fillColor=#D56C2D;" parent="1" vertex="1">
          <mxGeometry x="309" y="310" width="40" height="80" as="geometry" />
        </mxCell>
        <mxCell id="4MG40RaIR5A7FEPSrc4y-14" value="Actor" style="shape=umlActor;verticalLabelPosition=bottom;verticalAlign=top;html=1;outlineConnect=0;sketch=0;fontSize=18;fontColor=#FFFFFF;strokeColor=#D77535;strokeWidth=2;fillColor=#D56C2D;" parent="1" vertex="1">
          <mxGeometry x="410" y="310" width="40" height="80" as="geometry" />
        </mxCell>
        <mxCell id="4MG40RaIR5A7FEPSrc4y-25" value="" style="endArrow=classic;html=1;sketch=0;fontSize=18;fontColor=#FFFFFF;strokeColor=#D56C2D;strokeWidth=2;curved=1;" parent="1" edge="1">
          <mxGeometry width="50" height="50" relative="1" as="geometry">
            <mxPoint x="210" y="140" as="sourcePoint" />
            <mxPoint x="310" y="140" as="targetPoint" />
            <Array as="points">
              <mxPoint x="260" y="90" />
            </Array>
          </mxGeometry>
        </mxCell>
        <mxCell id="4MG40RaIR5A7FEPSrc4y-33" value="Image" style="edgeLabel;html=1;align=center;verticalAlign=middle;resizable=0;points=[];fontSize=16;fontColor=#D56C2D;" parent="4MG40RaIR5A7FEPSrc4y-25" vertex="1" connectable="0">
          <mxGeometry x="-0.23" y="-12" relative="1" as="geometry">
            <mxPoint x="2" y="-14" as="offset" />
          </mxGeometry>
        </mxCell>
        <mxCell id="4MG40RaIR5A7FEPSrc4y-26" value="" style="endArrow=classic;html=1;sketch=0;fontSize=18;fontColor=#FFFFFF;strokeColor=#D56C2D;strokeWidth=2;curved=1;" parent="1" edge="1">
          <mxGeometry width="50" height="50" relative="1" as="geometry">
            <mxPoint x="450" y="140" as="sourcePoint" />
            <mxPoint x="550" y="140" as="targetPoint" />
            <Array as="points">
              <mxPoint x="500" y="90" />
            </Array>
          </mxGeometry>
        </mxCell>
        <mxCell id="4MG40RaIR5A7FEPSrc4y-34" value="Container" style="edgeLabel;html=1;align=center;verticalAlign=middle;resizable=0;points=[];fontSize=16;fontColor=#D56C2D;" parent="4MG40RaIR5A7FEPSrc4y-26" vertex="1" connectable="0">
          <mxGeometry x="-0.3" y="-17" relative="1" as="geometry">
            <mxPoint x="4" y="-18" as="offset" />
          </mxGeometry>
        </mxCell>
        <mxCell id="4MG40RaIR5A7FEPSrc4y-28" value="" style="endArrow=classic;html=1;sketch=0;fontSize=18;fontColor=#FFFFFF;strokeColor=#D56C2D;strokeWidth=2;curved=1;" parent="1" edge="1">
          <mxGeometry width="50" height="50" relative="1" as="geometry">
            <mxPoint x="140" y="310" as="sourcePoint" />
            <mxPoint x="140" y="220" as="targetPoint" />
          </mxGeometry>
        </mxCell>
        <mxCell id="4MG40RaIR5A7FEPSrc4y-32" value="&lt;font style=&quot;font-size: 16px;&quot;&gt;Models&lt;/font&gt;" style="edgeLabel;html=1;align=center;verticalAlign=top;resizable=0;points=[];fontSize=16;fontColor=#D56C2D;" parent="4MG40RaIR5A7FEPSrc4y-28" vertex="1" connectable="0">
          <mxGeometry x="0.175" y="1" relative="1" as="geometry">
            <mxPoint as="offset" />
          </mxGeometry>
        </mxCell>
        <mxCell id="4MG40RaIR5A7FEPSrc4y-29" value="" style="endArrow=classic;html=1;sketch=0;fontSize=18;fontColor=#FFFFFF;strokeColor=#D56C2D;strokeWidth=2;curved=1;" parent="1" edge="1">
          <mxGeometry width="50" height="50" relative="1" as="geometry">
            <mxPoint x="619.5" y="310" as="sourcePoint" />
            <mxPoint x="620" y="220" as="targetPoint" />
          </mxGeometry>
        </mxCell>
        <mxCell id="4MG40RaIR5A7FEPSrc4y-35" value="Patient Records" style="edgeLabel;html=1;align=center;verticalAlign=top;resizable=0;points=[];fontSize=16;fontColor=#D56C2D;" parent="4MG40RaIR5A7FEPSrc4y-29" vertex="1" connectable="0">
          <mxGeometry x="0.125" y="-3" relative="1" as="geometry">
            <mxPoint x="1" as="offset" />
          </mxGeometry>
        </mxCell>
        <mxCell id="4MG40RaIR5A7FEPSrc4y-30" value="" style="endArrow=classic;html=1;sketch=0;fontSize=18;fontColor=#FFFFFF;strokeColor=#D56C2D;strokeWidth=2;curved=1;" parent="1" edge="1">
          <mxGeometry width="50" height="50" relative="1" as="geometry">
            <mxPoint x="297" y="350" as="sourcePoint" />
            <mxPoint x="217" y="350" as="targetPoint" />
          </mxGeometry>
        </mxCell>
        <mxCell id="4MG40RaIR5A7FEPSrc4y-31" value="" style="endArrow=classic;html=1;sketch=0;fontSize=18;fontColor=#FFFFFF;strokeColor=#D56C2D;strokeWidth=2;curved=1;" parent="1" edge="1">
          <mxGeometry width="50" height="50" relative="1" as="geometry">
            <mxPoint x="460" y="350" as="sourcePoint" />
            <mxPoint x="540" y="349.5" as="targetPoint" />
          </mxGeometry>
        </mxCell>
        <mxCell id="4MG40RaIR5A7FEPSrc4y-36" value="" style="rounded=0;whiteSpace=wrap;html=1;sketch=0;fontSize=18;fontColor=#D56C2D;strokeColor=#000000;strokeWidth=1;fillColor=none;dashed=1;" parent="1" vertex="1">
          <mxGeometry x="60" y="260" width="300" height="140" as="geometry" />
        </mxCell>
        <mxCell id="4MG40RaIR5A7FEPSrc4y-38" value="" style="rounded=0;whiteSpace=wrap;html=1;sketch=0;fontSize=18;fontColor=#D56C2D;strokeColor=#000000;strokeWidth=1;fillColor=none;dashed=1;" parent="1" vertex="1">
          <mxGeometry x="400" y="260" width="300" height="140" as="geometry" />
        </mxCell>
        <mxCell id="4MG40RaIR5A7FEPSrc4y-39" value="" style="rounded=0;whiteSpace=wrap;html=1;sketch=0;fontSize=18;fontColor=#D56C2D;strokeColor=#000000;strokeWidth=1;fillColor=none;dashed=1;" parent="1" vertex="1">
          <mxGeometry x="60" y="80" width="640" height="160" as="geometry" />
        </mxCell>
      </root>
    </mxGraphModel>
  </diagram>
</mxfile>
